<?xml version="1.0" encoding="UTF-8"?><svg xmlns="http://www.w3.org/2000/svg" xmlns:xlink="http://www.w3.org/1999/xlink" width="1620" zoomAndPan="magnify" viewBox="0 0 1620 1619.99993" height="1619.99993" preserveAspectRatio="xMidYMid meet" version="1.0"><defs><clipPath id="clip-0"><path d="M 311.199219 486 L 870.699219 486 L 870.699219 1134 L 311.199219 1134 Z M 311.199219 486 " clip-rule="nonzero"/></clipPath><clipPath id="clip-1"><path d="M 745.042969 486 L 1309 486 L 1309 1134 L 745.042969 1134 Z M 745.042969 486 " clip-rule="nonzero"/></clipPath></defs><path fill="rgb(38.038635%, 91.758728%, 80.778503%)" d="M 300.996094 0 L 0 300.996094 L 0 1319.003906 L 300.996094 1620 L 1319.003906 1620 L 1620 1319.003906 L 1620 300.996094 L 1319.003906 0 Z M 327.886719 56.214844 L 1292.113281 56.214844 L 1563.785156 327.886719 L 1563.785156 1292.113281 L 1292.113281 1563.785156 L 327.886719 1563.785156 L 56.214844 1292.113281 L 56.214844 327.886719 Z M 327.886719 56.214844 " fill-opacity="1" fill-rule="nonzero"/><g clip-path="url(#clip-0)"><path fill="rgb(38.038635%, 91.758728%, 80.778503%)" d="M 560.972656 486 L 325.949219 486 C 317.808594 486 311.230469 492.597656 311.230469 500.726562 L 311.230469 1119.273438 C 311.230469 1127.402344 317.808594 1134 325.949219 1134 L 560.972656 1134 C 757.792969 1134 870.664062 1014.886719 870.664062 807.214844 C 870.664062 606.070312 754.890625 486 560.972656 486 Z M 548.605469 1030.910156 L 443.726562 1030.910156 L 443.726562 589.089844 L 548.605469 589.089844 C 667.824219 589.089844 738.167969 669.296875 738.167969 808.894531 C 738.167969 951.585938 669.503906 1030.910156 548.605469 1030.910156 Z M 548.605469 1030.910156 " fill-opacity="1" fill-rule="nonzero"/></g><g clip-path="url(#clip-1)"><path fill="rgb(38.038635%, 91.758728%, 80.778503%)" d="M 1197.1875 922.695312 C 1190.972656 922.695312 1185.730469 926.835938 1183.714844 932.710938 C 1164.011719 989.777344 1108.910156 1021.304688 1037.964844 1021.304688 C 934.5625 1021.304688 872.019531 943.179688 872.019531 809.789062 C 872.019531 676.820312 934.5625 598.695312 1037.542969 598.695312 C 1110.136719 598.695312 1166.4375 636.433594 1184.957031 700.742188 C 1186.746094 706.941406 1192.144531 711.390625 1198.582031 711.390625 C 1198.582031 711.390625 1276.589844 711.433594 1301.859375 711.390625 C 1306.101562 711.378906 1309.410156 707.628906 1308.863281 703.433594 C 1292.34375 577.15625 1178.925781 486 1037.542969 486 C 857.207031 486 745.179688 610.234375 745.179688 810.210938 C 745.179688 1009.921875 857.375 1134 1037.964844 1134 C 1179.855469 1134 1288.46875 1052.507812 1308.835938 930.949219 C 1309.554688 926.667969 1306.199219 922.710938 1301.84375 922.695312 Z M 1197.1875 922.695312 " fill-opacity="1" fill-rule="nonzero"/></g></svg>