<?xml version="1.0" encoding="UTF-8"?><svg xmlns="http://www.w3.org/2000/svg" xmlns:xlink="http://www.w3.org/1999/xlink" width="1620" zoomAndPan="magnify" viewBox="0 0 1620 1619.99993" height="1619.99993" preserveAspectRatio="xMidYMid meet" version="1.0"><defs><clipPath id="clip-0"><path d="M 273.375 486 L 832.875 486 L 832.875 1134 L 273.375 1134 Z M 273.375 486 " clip-rule="nonzero"/></clipPath><clipPath id="clip-1"><path d="M 787 486 L 1350.914062 486 L 1350.914062 1134 L 787 1134 Z M 787 486 " clip-rule="nonzero"/></clipPath><clipPath id="clip-2"><path d="M 786.914062 654 L 833.414062 654 L 833.414062 1128 L 786.914062 1128 Z M 786.914062 654 " clip-rule="nonzero"/></clipPath><clipPath id="clip-3"><path d="M 786.914062 492 L 833.414062 492 L 833.414062 578 L 786.914062 578 Z M 786.914062 492 " clip-rule="nonzero"/></clipPath></defs><path fill="rgb(38.038635%, 91.758728%, 80.778503%)" d="M 300.996094 0 L 0 300.996094 L 0 1319.003906 L 300.996094 1620 L 1319.003906 1620 L 1620 1319.003906 L 1620 300.996094 L 1319.003906 0 Z M 327.886719 56.214844 L 1292.113281 56.214844 L 1563.785156 327.886719 L 1563.785156 1292.113281 L 1292.113281 1563.785156 L 327.886719 1563.785156 L 56.214844 1292.113281 L 56.214844 327.886719 Z M 327.886719 56.214844 " fill-opacity="1" fill-rule="nonzero"/><path fill="rgb(38.038635%, 91.758728%, 80.778503%)" d="M 189.773438 1031.933594 L 175.503906 1007.605469 L 1022.886719 162 L 1061.539062 162 Z M 984.234375 162 L 945.578125 162 L 147.554688 958.351562 L 161.828125 982.679688 Z M 1138.84375 162 L 1100.191406 162 L 204.046875 1056.261719 L 218.316406 1080.59375 Z M 1196.523438 182.175781 L 1184.628906 162 L 1177.496094 162 L 231.996094 1104.921875 L 246.265625 1129.25 Z M 1224.472656 230.835938 L 1210.199219 206.503906 L 261.132812 1154.175781 L 275.40625 1178.503906 Z M 906.925781 162 L 868.273438 162 L 119.011719 909.097656 L 133.28125 933.429688 Z M 1253.015625 280.085938 L 1238.746094 255.757812 L 289.082031 1203.425781 L 303.355469 1227.757812 Z M 321.195312 360.199219 L 519.808594 162 L 481.15625 162 L 374.117188 268.8125 Z M 1380.273438 500.242188 L 430.609375 1447.910156 L 435.367188 1456.8125 L 460.9375 1456.8125 L 1394.542969 525.164062 Z M 597.113281 162 L 558.460938 162 L 268.269531 451.582031 L 215.34375 542.964844 Z M 674.417969 162 L 635.765625 162 L 162.421875 634.351562 L 109.496094 725.734375 Z M 829.621094 162 L 790.96875 162 L 91.0625 860.4375 L 105.335938 884.769531 Z M 751.722656 162 L 713.070312 162 L 62.519531 811.1875 L 76.789062 835.515625 Z M 427.042969 177.429688 L 442.503906 162 L 435.960938 162 Z M 1539.042969 843.824219 L 1559.261719 809.40625 L 1550.34375 793.976562 L 886.710938 1456.8125 L 925.363281 1456.8125 Z M 1536.070312 769.648438 L 1521.800781 745.316406 L 809.402344 1456.8125 L 848.058594 1456.8125 Z M 1433.789062 1026.59375 L 1486.714844 935.207031 L 964.015625 1456.8125 L 1002.667969 1456.8125 Z M 1327.941406 1209.363281 L 1380.867188 1117.976562 L 1041.320312 1456.8125 L 1079.972656 1456.8125 Z M 1222.09375 1392.128906 L 1275.019531 1300.746094 L 1118.625 1456.8125 L 1157.277344 1456.8125 Z M 1508.121094 720.394531 L 1493.851562 696.066406 L 731.503906 1456.8125 L 770.15625 1456.8125 Z M 1479.578125 671.734375 L 1465.308594 647.40625 L 654.199219 1456.8125 L 692.851562 1456.8125 Z M 1338.050781 426.660156 L 1323.78125 402.328125 L 374.117188 1350 L 388.390625 1374.328125 Z M 1309.507812 378 L 1295.238281 353.671875 L 345.574219 1301.339844 L 359.847656 1325.667969 Z M 1366 475.910156 L 1351.730469 451.582031 L 402.660156 1398.65625 L 416.933594 1422.988281 Z M 1451.035156 622.484375 L 1436.765625 598.152344 L 576.894531 1456.8125 L 615.546875 1456.8125 Z M 1281.558594 328.746094 L 1267.289062 304.417969 L 317.625 1252.085938 L 331.898438 1276.417969 Z M 1423.085938 573.824219 L 1408.816406 549.492188 L 499.589844 1456.8125 L 538.242188 1456.8125 Z M 1423.085938 573.824219 " fill-opacity="1" fill-rule="nonzero"/><g clip-path="url(#clip-0)"><path fill="rgb(3.919983%, 9.799194%, 18.429565%)" d="M 523.152344 486 L 288.128906 486 C 279.988281 486 273.40625 492.597656 273.40625 500.726562 L 273.40625 1119.273438 C 273.40625 1127.402344 279.988281 1134 288.128906 1134 L 523.152344 1134 C 719.96875 1134 832.84375 1014.886719 832.84375 807.214844 C 832.84375 606.070312 717.070312 486 523.152344 486 Z M 510.785156 1030.910156 L 405.90625 1030.910156 L 405.90625 589.089844 L 510.785156 589.089844 C 630.003906 589.089844 700.34375 669.296875 700.34375 808.894531 C 700.34375 951.585938 631.683594 1030.910156 510.785156 1030.910156 Z M 510.785156 1030.910156 " fill-opacity="1" fill-rule="nonzero"/></g><g clip-path="url(#clip-1)"><path fill="rgb(3.919983%, 9.799194%, 18.429565%)" d="M 1239.0625 922.695312 C 1232.847656 922.695312 1227.601562 926.835938 1225.589844 932.710938 C 1205.886719 989.777344 1150.78125 1021.304688 1079.835938 1021.304688 C 976.4375 1021.304688 913.890625 943.179688 913.890625 809.789062 C 913.890625 676.820312 976.4375 598.695312 1079.414062 598.695312 C 1152.007812 598.695312 1208.308594 636.433594 1226.828125 700.742188 C 1228.617188 706.941406 1234.015625 711.390625 1240.457031 711.390625 C 1240.457031 711.390625 1318.460938 711.433594 1343.730469 711.390625 C 1347.972656 711.378906 1351.285156 707.628906 1350.734375 703.433594 C 1334.21875 577.15625 1220.796875 486 1079.414062 486 C 899.078125 486 787.054688 610.234375 787.054688 810.210938 C 787.054688 1009.921875 899.25 1134 1079.835938 1134 C 1221.726562 1134 1330.34375 1052.507812 1350.707031 930.949219 C 1351.425781 926.667969 1348.070312 922.710938 1343.714844 922.695312 Z M 1239.0625 922.695312 " fill-opacity="1" fill-rule="nonzero"/></g><g clip-path="url(#clip-2)"><path fill="rgb(3.919983%, 9.799194%, 18.429565%)" d="M 810.164062 1127.8125 C 809.402344 1127.8125 808.644531 1127.777344 807.886719 1127.703125 C 807.128906 1127.628906 806.375 1127.515625 805.628906 1127.367188 C 804.882812 1127.222656 804.144531 1127.039062 803.414062 1126.820312 C 802.6875 1126.597656 801.972656 1126.34375 801.265625 1126.054688 C 800.5625 1125.765625 799.875 1125.445312 799.203125 1125.085938 C 798.535156 1124.730469 797.882812 1124.34375 797.246094 1123.921875 C 796.613281 1123.503906 796.003906 1123.054688 795.414062 1122.574219 C 794.828125 1122.09375 794.261719 1121.585938 793.726562 1121.050781 C 793.1875 1120.519531 792.675781 1119.957031 792.191406 1119.375 C 791.710938 1118.789062 791.257812 1118.183594 790.832031 1117.554688 C 790.410156 1116.925781 790.019531 1116.277344 789.660156 1115.613281 C 789.300781 1114.945312 788.976562 1114.261719 788.683594 1113.566406 C 788.394531 1112.867188 788.136719 1112.15625 787.917969 1111.433594 C 787.695312 1110.707031 787.511719 1109.976562 787.363281 1109.234375 C 787.214844 1108.492188 787.101562 1107.746094 787.027344 1106.996094 C 786.953125 1106.242188 786.914062 1105.488281 786.914062 1104.734375 L 786.914062 677.195312 C 786.914062 676.441406 786.953125 675.6875 787.027344 674.933594 C 787.101562 674.183594 787.214844 673.4375 787.363281 672.695312 C 787.511719 671.953125 787.695312 671.21875 787.917969 670.496094 C 788.136719 669.773438 788.394531 669.0625 788.683594 668.363281 C 788.976562 667.667969 789.300781 666.984375 789.660156 666.316406 C 790.019531 665.652344 790.410156 665.003906 790.832031 664.375 C 791.257812 663.746094 791.710938 663.140625 792.191406 662.554688 C 792.675781 661.972656 793.1875 661.410156 793.726562 660.878906 C 794.261719 660.34375 794.828125 659.835938 795.414062 659.355469 C 796.003906 658.875 796.613281 658.425781 797.246094 658.007812 C 797.882812 657.585938 798.535156 657.199219 799.203125 656.84375 C 799.875 656.484375 800.5625 656.164062 801.265625 655.875 C 801.972656 655.585938 802.6875 655.332031 803.414062 655.109375 C 804.144531 654.890625 804.882812 654.707031 805.628906 654.5625 C 806.375 654.414062 807.128906 654.300781 807.886719 654.226562 C 808.644531 654.152344 809.402344 654.117188 810.164062 654.117188 C 810.925781 654.117188 811.6875 654.152344 812.445312 654.226562 C 813.203125 654.300781 813.953125 654.414062 814.699219 654.5625 C 815.449219 654.707031 816.183594 654.890625 816.914062 655.109375 C 817.644531 655.332031 818.359375 655.585938 819.0625 655.875 C 819.765625 656.164062 820.453125 656.484375 821.125 656.84375 C 821.796875 657.199219 822.449219 657.585938 823.082031 658.007812 C 823.714844 658.425781 824.324219 658.875 824.914062 659.355469 C 825.503906 659.835938 826.066406 660.34375 826.605469 660.878906 C 827.144531 661.410156 827.65625 661.972656 828.136719 662.554688 C 828.621094 663.140625 829.074219 663.746094 829.496094 664.375 C 829.917969 665.003906 830.3125 665.652344 830.667969 666.316406 C 831.027344 666.984375 831.355469 667.667969 831.644531 668.363281 C 831.9375 669.0625 832.191406 669.773438 832.414062 670.496094 C 832.636719 671.21875 832.820312 671.953125 832.96875 672.695312 C 833.117188 673.4375 833.226562 674.183594 833.304688 674.933594 C 833.378906 675.6875 833.414062 676.441406 833.414062 677.195312 L 833.414062 1104.734375 C 833.414062 1105.488281 833.378906 1106.242188 833.304688 1106.996094 C 833.226562 1107.746094 833.117188 1108.492188 832.96875 1109.234375 C 832.820312 1109.976562 832.636719 1110.707031 832.414062 1111.433594 C 832.191406 1112.15625 831.9375 1112.867188 831.644531 1113.566406 C 831.355469 1114.261719 831.027344 1114.945312 830.667969 1115.613281 C 830.3125 1116.277344 829.917969 1116.925781 829.496094 1117.554688 C 829.074219 1118.183594 828.621094 1118.789062 828.136719 1119.375 C 827.65625 1119.957031 827.144531 1120.519531 826.605469 1121.050781 C 826.066406 1121.585938 825.503906 1122.09375 824.914062 1122.574219 C 824.324219 1123.054688 823.714844 1123.503906 823.082031 1123.921875 C 822.449219 1124.34375 821.796875 1124.730469 821.125 1125.085938 C 820.453125 1125.445312 819.765625 1125.765625 819.0625 1126.054688 C 818.359375 1126.34375 817.644531 1126.597656 816.914062 1126.820312 C 816.183594 1127.039062 815.449219 1127.222656 814.699219 1127.367188 C 813.953125 1127.515625 813.203125 1127.628906 812.445312 1127.703125 C 811.6875 1127.777344 810.925781 1127.8125 810.164062 1127.8125 Z M 810.164062 1127.8125 " fill-opacity="1" fill-rule="nonzero"/></g><g clip-path="url(#clip-3)"><path fill="rgb(3.919983%, 9.799194%, 18.429565%)" d="M 810.164062 577.675781 C 809.402344 577.675781 808.644531 577.640625 807.886719 577.566406 C 807.128906 577.492188 806.375 577.378906 805.628906 577.230469 C 804.882812 577.085938 804.144531 576.902344 803.414062 576.683594 C 802.6875 576.460938 801.972656 576.207031 801.265625 575.917969 C 800.5625 575.628906 799.875 575.308594 799.203125 574.949219 C 798.535156 574.59375 797.882812 574.207031 797.246094 573.785156 C 796.613281 573.367188 796.003906 572.917969 795.414062 572.4375 C 794.828125 571.957031 794.261719 571.449219 793.726562 570.914062 C 793.1875 570.382812 792.675781 569.820312 792.191406 569.238281 C 791.710938 568.652344 791.257812 568.046875 790.832031 567.417969 C 790.410156 566.789062 790.019531 566.140625 789.660156 565.476562 C 789.300781 564.808594 788.976562 564.125 788.683594 563.429688 C 788.394531 562.730469 788.136719 562.019531 787.917969 561.296875 C 787.695312 560.570312 787.511719 559.839844 787.363281 559.097656 C 787.214844 558.355469 787.101562 557.609375 787.027344 556.859375 C 786.953125 556.105469 786.914062 555.351562 786.914062 554.597656 L 786.914062 515.265625 C 786.914062 514.511719 786.953125 513.757812 787.027344 513.003906 C 787.101562 512.253906 787.214844 511.507812 787.363281 510.765625 C 787.511719 510.023438 787.695312 509.289062 787.917969 508.566406 C 788.136719 507.84375 788.394531 507.132812 788.683594 506.433594 C 788.976562 505.738281 789.300781 505.054688 789.660156 504.386719 C 790.019531 503.722656 790.410156 503.074219 790.832031 502.445312 C 791.257812 501.816406 791.710938 501.210938 792.191406 500.625 C 792.675781 500.042969 793.1875 499.480469 793.726562 498.945312 C 794.261719 498.414062 794.828125 497.90625 795.414062 497.425781 C 796.003906 496.945312 796.613281 496.496094 797.246094 496.078125 C 797.882812 495.65625 798.535156 495.269531 799.203125 494.914062 C 799.875 494.554688 800.5625 494.234375 801.265625 493.945312 C 801.972656 493.65625 802.6875 493.402344 803.414062 493.179688 C 804.144531 492.960938 804.882812 492.777344 805.628906 492.628906 C 806.375 492.484375 807.128906 492.371094 807.886719 492.296875 C 808.644531 492.222656 809.402344 492.1875 810.164062 492.1875 C 810.925781 492.1875 811.6875 492.222656 812.445312 492.296875 C 813.203125 492.371094 813.953125 492.484375 814.699219 492.628906 C 815.449219 492.777344 816.183594 492.960938 816.914062 493.179688 C 817.644531 493.402344 818.359375 493.65625 819.0625 493.945312 C 819.765625 494.234375 820.453125 494.554688 821.125 494.914062 C 821.796875 495.269531 822.449219 495.65625 823.082031 496.078125 C 823.714844 496.496094 824.324219 496.945312 824.914062 497.425781 C 825.503906 497.90625 826.066406 498.414062 826.605469 498.945312 C 827.144531 499.480469 827.65625 500.042969 828.136719 500.625 C 828.621094 501.210938 829.074219 501.816406 829.496094 502.445312 C 829.917969 503.074219 830.3125 503.722656 830.667969 504.386719 C 831.027344 505.054688 831.355469 505.738281 831.644531 506.433594 C 831.9375 507.132812 832.191406 507.84375 832.414062 508.566406 C 832.636719 509.289062 832.820312 510.023438 832.96875 510.765625 C 833.117188 511.507812 833.226562 512.253906 833.304688 513.003906 C 833.378906 513.757812 833.414062 514.511719 833.414062 515.265625 L 833.414062 554.597656 C 833.414062 555.351562 833.378906 556.105469 833.304688 556.859375 C 833.226562 557.609375 833.117188 558.355469 832.96875 559.097656 C 832.820312 559.839844 832.636719 560.570312 832.414062 561.296875 C 832.191406 562.019531 831.9375 562.730469 831.644531 563.429688 C 831.355469 564.125 831.027344 564.808594 830.667969 565.476562 C 830.3125 566.140625 829.917969 566.789062 829.496094 567.417969 C 829.074219 568.046875 828.621094 568.652344 828.136719 569.238281 C 827.65625 569.820312 827.144531 570.382812 826.605469 570.914062 C 826.066406 571.449219 825.503906 571.957031 824.914062 572.4375 C 824.324219 572.917969 823.714844 573.367188 823.082031 573.785156 C 822.449219 574.207031 821.796875 574.59375 821.125 574.949219 C 820.453125 575.308594 819.765625 575.628906 819.0625 575.917969 C 818.359375 576.207031 817.644531 576.460938 816.914062 576.683594 C 816.183594 576.902344 815.449219 577.085938 814.699219 577.230469 C 813.953125 577.378906 813.203125 577.492188 812.445312 577.566406 C 811.6875 577.640625 810.925781 577.675781 810.164062 577.675781 Z M 810.164062 577.675781 " fill-opacity="1" fill-rule="nonzero"/></g></svg>