<?xml version="1.0" encoding="UTF-8"?><svg xmlns="http://www.w3.org/2000/svg" xmlns:xlink="http://www.w3.org/1999/xlink" width="1620" zoomAndPan="magnify" viewBox="0 0 1620 1619.99993" height="1619.99993" preserveAspectRatio="xMidYMid meet" version="1.0"><defs><clipPath id="clip-0"><path d="M 250.289062 386 L 809.789062 386 L 809.789062 1034 L 250.289062 1034 Z M 250.289062 386 " clip-rule="nonzero"/></clipPath><clipPath id="clip-1"><path d="M 258 386 L 810 386 L 810 1034 L 258 1034 Z M 258 386 " clip-rule="nonzero"/></clipPath><clipPath id="clip-2"><path d="M 806.355469 711 L 1345 711 L 1345 1358 L 806.355469 1358 Z M 806.355469 711 " clip-rule="nonzero"/></clipPath></defs><path fill="rgb(38.038635%, 91.758728%, 80.778503%)" d="M 1262.144531 1146.695312 C 1255.929688 1146.695312 1250.6875 1150.835938 1248.671875 1156.710938 C 1228.972656 1213.777344 1173.867188 1245.304688 1102.921875 1245.304688 C 999.519531 1245.304688 936.976562 1167.175781 936.976562 1033.789062 C 936.976562 900.820312 999.519531 822.695312 1102.5 822.695312 C 1175.09375 822.695312 1231.394531 860.433594 1249.914062 924.742188 C 1251.703125 930.9375 1257.101562 935.390625 1263.542969 935.390625 C 1263.542969 935.390625 1341.546875 935.433594 1366.816406 935.390625 C 1371.058594 935.375 1374.371094 931.628906 1373.820312 927.429688 C 1357.300781 801.15625 1243.882812 710 1102.5 710 C 922.164062 710 810.136719 834.230469 810.136719 1034.210938 C 810.136719 1233.921875 922.332031 1358 1102.921875 1358 C 1244.8125 1358 1353.425781 1276.507812 1373.792969 1154.949219 C 1374.511719 1150.667969 1371.15625 1146.710938 1366.800781 1146.695312 Z M 1262.144531 1146.695312 " fill-opacity="1" fill-rule="nonzero"/><g clip-path="url(#clip-0)"><path fill="rgb(38.038635%, 91.758728%, 80.778503%)" d="M 500.066406 386 L 265.042969 386 C 256.902344 386 250.320312 392.597656 250.320312 400.726562 L 250.320312 1019.273438 C 250.320312 1027.402344 256.902344 1034 265.042969 1034 L 500.066406 1034 C 696.882812 1034 809.757812 914.886719 809.757812 707.214844 C 809.757812 506.070312 693.984375 386 500.066406 386 Z M 487.699219 930.910156 L 382.820312 930.910156 L 382.820312 489.089844 L 487.699219 489.089844 C 606.917969 489.089844 677.261719 569.296875 677.261719 708.894531 C 677.261719 851.585938 608.597656 930.910156 487.699219 930.910156 Z M 487.699219 930.910156 " fill-opacity="1" fill-rule="nonzero"/></g><path fill="rgb(38.038635%, 91.758728%, 80.778503%)" d="M 351.894531 81 L 81 351.894531 L 81 1268.101562 L 351.894531 1539 L 1268.101562 1539 L 1539 1268.101562 L 1539 351.894531 L 1268.101562 81 Z M 376.097656 131.59375 L 1243.902344 131.59375 L 1488.40625 376.097656 L 1488.40625 1243.902344 L 1243.902344 1488.40625 L 376.097656 1488.40625 L 131.59375 1243.902344 L 131.59375 376.097656 Z M 376.097656 131.59375 " fill-opacity="1" fill-rule="nonzero"/><path fill="rgb(0.389099%, 11.759949%, 19.219971%)" d="M 268.800781 929.957031 C 274.566406 929.957031 279.230469 925.296875 279.230469 919.542969 L 279.230469 884.878906 C 279.230469 879.117188 274.566406 874.457031 268.800781 874.457031 C 263.039062 874.457031 258.375 879.117188 258.375 884.878906 L 258.375 919.542969 C 258.375 925.296875 263.039062 929.957031 268.800781 929.957031 " fill-opacity="1" fill-rule="nonzero"/><g clip-path="url(#clip-1)"><path fill="rgb(0.389099%, 11.759949%, 19.219971%)" d="M 772.421875 547.796875 C 747.769531 502.011719 712.929688 464.839844 668.816406 437.296875 C 642.972656 421.339844 611.113281 408.648438 574.148438 399.601562 C 537.394531 390.59375 487.421875 386.023438 425.609375 386.023438 L 268.800781 386.023438 C 263.039062 386.023438 258.375 390.683594 258.375 396.445312 C 258.375 402.199219 263.039062 406.859375 268.800781 406.859375 L 425.609375 406.859375 C 485.75 406.859375 534.050781 411.226562 569.175781 419.84375 C 604.027344 428.367188 633.871094 440.207031 657.8125 454.988281 C 698.773438 480.574219 731.160156 515.117188 754.0625 557.667969 C 777.015625 600.308594 788.648438 651.804688 788.648438 710.699219 C 788.648438 765.703125 776.511719 816.199219 752.585938 860.804688 C 728.707031 905.292969 696.550781 940.253906 657.03125 964.707031 C 629.464844 981.71875 598.277344 994.164062 564.332031 1001.738281 C 530.007812 1009.398438 483.910156 1013.277344 427.292969 1013.277344 L 279.230469 1013.277344 L 279.230469 984.621094 C 279.230469 978.871094 274.566406 974.210938 268.800781 974.210938 C 263.039062 974.210938 258.375 978.871094 258.375 984.621094 L 258.375 1034.113281 L 427.292969 1034.113281 C 485.4375 1034.113281 533.058594 1030.058594 568.871094 1022.0625 C 605.085938 1014.003906 638.429688 1000.671875 667.988281 982.429688 C 710.675781 956.007812 745.332031 918.414062 770.953125 870.652344 C 796.53125 822.988281 809.496094 769.175781 809.496094 710.699219 C 809.496094 648.316406 797.027344 593.511719 772.421875 547.796875 " fill-opacity="1" fill-rule="nonzero"/></g><path fill="rgb(0.389099%, 11.759949%, 19.219971%)" d="M 612.621094 901.609375 C 588.816406 916.835938 562.304688 927.410156 533.8125 933.007812 C 504.691406 938.761719 469.984375 941.667969 430.667969 941.667969 L 396.300781 941.667969 C 390.542969 941.667969 385.878906 946.328125 385.878906 952.085938 C 385.878906 957.839844 390.542969 962.5 396.300781 962.5 L 430.667969 962.5 C 471.335938 962.5 507.40625 959.457031 537.847656 953.460938 C 568.914062 947.34375 597.851562 935.792969 623.855469 919.152344 C 656.558594 898.25 681.445312 870.304688 697.824219 836.097656 C 714.03125 802.273438 722.246094 759.660156 722.246094 709.4375 C 722.246094 658.890625 713.214844 615.496094 695.398438 580.453125 C 677.382812 545.066406 650.1875 516.816406 614.542969 496.496094 C 588.921875 481.953125 561.351562 471.71875 532.585938 466.058594 C 504.246094 460.472656 469.964844 457.644531 430.667969 457.644531 C 424.902344 457.644531 420.242188 462.304688 420.242188 468.058594 C 420.242188 473.816406 424.902344 478.476562 430.667969 478.476562 C 468.609375 478.476562 501.535156 481.171875 528.550781 486.5 C 555.121094 491.71875 580.585938 501.175781 604.226562 514.601562 C 636.261719 532.871094 660.683594 558.195312 676.816406 589.890625 C 693.121094 621.980469 701.402344 662.199219 701.402344 709.4375 C 701.402344 756.519531 693.867188 796.109375 679.011719 827.105469 C 664.347656 857.753906 642.003906 882.824219 612.621094 901.609375 " fill-opacity="1" fill-rule="nonzero"/><g clip-path="url(#clip-2)"><path fill="rgb(0.389099%, 11.759949%, 19.219971%)" d="M 1344.046875 1286.714844 C 1341.757812 1281.464844 1335.671875 1279.066406 1330.398438 1281.34375 C 1314.917969 1288.097656 1300.917969 1294.429688 1288.402344 1300.34375 C 1276.453125 1305.988281 1260.457031 1312.019531 1240.902344 1318.273438 C 1224.363281 1323.4375 1206.066406 1327.921875 1186.527344 1331.621094 C 1167.265625 1335.257812 1145.707031 1337.097656 1122.414062 1337.097656 C 1078.488281 1337.097656 1038.085938 1330.871094 1002.316406 1318.574219 C 966.957031 1306.433594 935.765625 1287.144531 909.609375 1261.25 C 883.984375 1235.867188 863.648438 1203.0625 849.171875 1163.742188 C 834.558594 1124.121094 827.160156 1077.261719 827.160156 1024.503906 C 827.160156 974.492188 834.292969 929.246094 848.363281 890.023438 C 862.3125 851.074219 882.679688 817.761719 908.878906 791.011719 C 934.269531 765.085938 965.390625 745.023438 1001.363281 731.367188 C 1006.71875 729.34375 1009.414062 723.359375 1007.378906 718 C 1005.355469 712.640625 999.339844 709.917969 994.015625 711.980469 C 955.207031 726.699219 921.582031 748.402344 894.078125 776.488281 C 865.761719 805.398438 843.816406 841.238281 828.84375 883.011719 C 813.96875 924.5 806.429688 972.101562 806.429688 1024.503906 C 806.429688 1079.722656 814.261719 1128.976562 829.710938 1170.914062 C 845.25 1213.105469 867.21875 1248.457031 895.03125 1275.996094 C 923.414062 1304.101562 957.25 1325.027344 995.582031 1338.195312 C 1033.527344 1351.230469 1076.1875 1357.839844 1122.414062 1357.839844 C 1146.992188 1357.839844 1169.859375 1355.875 1190.367188 1352 C 1210.699219 1348.160156 1229.78125 1343.476562 1247.152344 1338.050781 C 1267.625 1331.511719 1284.476562 1325.128906 1297.25 1319.101562 C 1309.605469 1313.265625 1323.425781 1307.019531 1338.679688 1300.371094 C 1343.929688 1298.078125 1346.332031 1291.957031 1344.046875 1286.714844 " fill-opacity="1" fill-rule="nonzero"/></g><path fill="rgb(0.389099%, 11.759949%, 19.219971%)" d="M 956.734375 827.0625 C 936.546875 849.011719 920.648438 877.007812 909.46875 910.269531 C 898.402344 943.179688 892.792969 981.621094 892.792969 1024.503906 C 892.792969 1069.476562 899.007812 1108.800781 911.269531 1141.398438 C 923.578125 1174.144531 939.757812 1201.28125 959.355469 1222.0625 C 979.90625 1243.796875 1004.261719 1260.121094 1031.746094 1270.554688 C 1058.929688 1280.886719 1088.019531 1286.128906 1118.21875 1286.128906 C 1159.300781 1286.128906 1198.378906 1278.972656 1234.351562 1264.855469 C 1239.683594 1262.765625 1242.3125 1256.753906 1240.21875 1251.414062 C 1238.125 1246.078125 1232.109375 1243.484375 1226.785156 1245.546875 C 1193.234375 1258.707031 1156.710938 1265.382812 1118.21875 1265.382812 C 1090.546875 1265.382812 1063.929688 1260.597656 1039.097656 1251.175781 C 1014.566406 1241.851562 992.804688 1227.257812 974.425781 1207.8125 C 956.734375 1189.054688 942.015625 1164.257812 930.675781 1134.09375 C 919.296875 1103.84375 913.523438 1066.976562 913.523438 1024.503906 C 913.523438 983.878906 918.769531 947.660156 929.125 916.871094 C 939.371094 886.394531 953.785156 860.898438 971.984375 841.109375 C 990.695312 820.824219 1012.207031 805.671875 1035.945312 796.097656 C 1083.527344 776.90625 1148.660156 777.460938 1202.449219 793.742188 C 1207.957031 795.398438 1213.71875 792.292969 1215.375 786.820312 C 1217.03125 781.332031 1213.941406 775.550781 1208.460938 773.886719 C 1179.773438 765.210938 1149.125 760.804688 1117.378906 760.804688 C 1084.621094 760.804688 1054.617188 766.195312 1028.195312 776.855469 C 1001.59375 787.59375 977.542969 804.484375 956.734375 827.0625 " fill-opacity="1" fill-rule="nonzero"/><path fill="rgb(0.389099%, 11.759949%, 19.219971%)" d="M 1259.738281 818.414062 C 1266.164062 822.03125 1272.601562 825.921875 1279.050781 830.097656 C 1280.789062 831.234375 1282.746094 831.769531 1284.679688 831.769531 C 1288.070312 831.769531 1291.398438 830.109375 1293.386719 827.042969 C 1296.507812 822.238281 1295.136719 815.824219 1290.328125 812.703125 C 1283.519531 808.277344 1276.695312 804.140625 1269.882812 800.320312 C 1264.890625 797.5 1258.5625 799.277344 1255.765625 804.296875 C 1252.964844 809.289062 1254.746094 815.605469 1259.738281 818.414062 " fill-opacity="1" fill-rule="nonzero"/></svg>