<?xml version="1.0" encoding="UTF-8"?><svg xmlns="http://www.w3.org/2000/svg" xmlns:xlink="http://www.w3.org/1999/xlink" width="1620" zoomAndPan="magnify" viewBox="0 0 1620 1619.99993" height="1619.99993" preserveAspectRatio="xMidYMid meet" version="1.0"><defs><clipPath id="clip-0"><path d="M 808 486 L 1371.976562 486 L 1371.976562 1134 L 808 1134 Z M 808 486 " clip-rule="nonzero"/></clipPath><clipPath id="clip-1"><path d="M 250.289062 486 L 809.789062 486 L 809.789062 1134 L 250.289062 1134 Z M 250.289062 486 " clip-rule="nonzero"/></clipPath></defs><path fill="rgb(38.038635%, 91.758728%, 80.778503%)" d="M 351.894531 81 L 81 351.894531 L 81 1268.101562 L 351.894531 1539 L 1268.101562 1539 L 1539 1268.101562 L 1539 351.894531 L 1268.101562 81 Z M 376.097656 131.59375 L 1243.902344 131.59375 L 1488.40625 376.097656 L 1488.40625 1243.902344 L 1243.902344 1488.40625 L 376.097656 1488.40625 L 131.59375 1243.902344 L 131.59375 376.097656 Z M 376.097656 131.59375 " fill-opacity="1" fill-rule="nonzero"/><g clip-path="url(#clip-0)"><path fill="rgb(38.038635%, 91.758728%, 80.778503%)" d="M 1100.460938 486 C 1011.269531 486 937.238281 517.113281 886.367188 573.769531 C 835.5 630.421875 808.113281 711.671875 808.113281 810.21875 C 808.113281 908.375 835.644531 989.480469 886.617188 1046.121094 C 937.585938 1102.761719 1011.699219 1134 1100.902344 1134 C 1244.355469 1134 1354.226562 1049.652344 1371.699219 924.648438 C 1371.769531 924.152344 1371.8125 923.652344 1371.828125 923.148438 C 1371.84375 922.648438 1371.832031 922.144531 1371.796875 921.644531 C 1371.757812 921.144531 1371.695312 920.648438 1371.601562 920.152344 C 1371.511719 919.660156 1371.394531 919.171875 1371.253906 918.6875 C 1371.109375 918.207031 1370.941406 917.734375 1370.746094 917.269531 C 1370.554688 916.808594 1370.335938 916.355469 1370.09375 915.914062 C 1369.851562 915.476562 1369.589844 915.050781 1369.300781 914.636719 C 1369.011719 914.226562 1368.703125 913.828125 1368.375 913.449219 C 1368.046875 913.070312 1367.695312 912.710938 1367.328125 912.371094 C 1366.960938 912.027344 1366.574219 911.707031 1366.171875 911.40625 C 1365.769531 911.105469 1365.351562 910.828125 1364.917969 910.570312 C 1364.488281 910.316406 1364.042969 910.085938 1363.585938 909.875 C 1363.128906 909.667969 1362.660156 909.484375 1362.183594 909.328125 C 1361.707031 909.167969 1361.222656 909.035156 1360.734375 908.929688 C 1360.242188 908.824219 1359.746094 908.742188 1359.246094 908.6875 C 1358.746094 908.636719 1358.246094 908.609375 1357.742188 908.609375 L 1249.652344 908.609375 C 1248.878906 908.609375 1248.109375 908.671875 1247.34375 908.800781 C 1246.582031 908.929688 1245.832031 909.117188 1245.101562 909.367188 C 1244.367188 909.617188 1243.660156 909.925781 1242.980469 910.292969 C 1242.300781 910.660156 1241.652344 911.082031 1241.039062 911.554688 C 1240.429688 912.027344 1239.859375 912.546875 1239.332031 913.117188 C 1238.804688 913.683594 1238.328125 914.289062 1237.902344 914.933594 C 1237.476562 915.582031 1237.105469 916.257812 1236.789062 916.964844 C 1236.476562 917.667969 1236.222656 918.398438 1236.027344 919.144531 C 1221.230469 976.074219 1171.476562 1007.21875 1100.902344 1007.21875 C 1052.746094 1007.21875 1016.203125 989.769531 990.222656 956.839844 C 964.242188 923.910156 949.042969 874.273438 949.042969 809.78125 C 949.042969 745.503906 964.234375 695.988281 990.167969 663.105469 C 1016.097656 630.21875 1052.539062 612.78125 1100.460938 612.78125 C 1171.824219 612.78125 1222.945312 649.699219 1236.769531 714.335938 C 1236.9375 715.117188 1237.167969 715.882812 1237.464844 716.625 C 1237.765625 717.367188 1238.121094 718.082031 1238.542969 718.761719 C 1238.960938 719.445312 1239.433594 720.085938 1239.964844 720.6875 C 1240.492188 721.289062 1241.070312 721.84375 1241.691406 722.347656 C 1242.3125 722.847656 1242.976562 723.296875 1243.675781 723.6875 C 1244.375 724.078125 1245.101562 724.40625 1245.855469 724.671875 C 1246.613281 724.941406 1247.382812 725.140625 1248.171875 725.277344 C 1248.964844 725.410156 1249.757812 725.480469 1250.558594 725.476562 L 1357.742188 725.476562 C 1358.234375 725.476562 1358.726562 725.453125 1359.214844 725.398438 C 1359.703125 725.347656 1360.1875 725.273438 1360.667969 725.167969 C 1361.148438 725.066406 1361.621094 724.941406 1362.089844 724.789062 C 1362.554688 724.636719 1363.015625 724.460938 1363.464844 724.261719 C 1363.910156 724.0625 1364.347656 723.839844 1364.773438 723.59375 C 1365.199219 723.347656 1365.613281 723.082031 1366.007812 722.792969 C 1366.40625 722.503906 1366.789062 722.195312 1367.15625 721.867188 C 1367.519531 721.539062 1367.867188 721.191406 1368.195312 720.828125 C 1368.523438 720.464844 1368.835938 720.082031 1369.125 719.6875 C 1369.414062 719.289062 1369.679688 718.878906 1369.925781 718.453125 C 1370.171875 718.027344 1370.398438 717.59375 1370.597656 717.144531 C 1370.796875 716.695312 1370.976562 716.238281 1371.128906 715.773438 C 1371.28125 715.304688 1371.410156 714.832031 1371.511719 714.351562 C 1371.617188 713.871094 1371.695312 713.386719 1371.746094 712.898438 C 1371.796875 712.410156 1371.824219 711.921875 1371.828125 711.429688 C 1371.828125 710.9375 1371.804688 710.449219 1371.753906 709.960938 C 1358.390625 579.476562 1244.359375 486 1100.460938 486 Z M 1100.460938 514.171875 C 1226.21875 514.171875 1321.640625 589.886719 1340.59375 697.304688 L 1259.78125 697.304688 C 1239.289062 627.632812 1177.730469 584.609375 1100.460938 584.609375 C 1045.40625 584.609375 999.121094 606.242188 968.035156 645.660156 C 936.953125 685.082031 920.859375 741.089844 920.859375 809.78125 C 920.859375 878.675781 936.945312 934.804688 968.089844 974.285156 C 999.238281 1013.761719 1045.644531 1035.390625 1100.902344 1035.390625 C 1175.808594 1035.390625 1236.332031 999.390625 1258.347656 936.78125 L 1339.988281 936.78125 C 1317.785156 1038.488281 1226.875 1105.824219 1100.902344 1105.824219 C 1018.183594 1105.824219 952.957031 1077.746094 907.5625 1027.300781 C 862.167969 976.855469 836.300781 903.128906 836.300781 810.21875 C 836.300781 716.875 862.085938 643.023438 907.371094 592.585938 C 952.65625 542.152344 1017.734375 514.171875 1100.460938 514.171875 Z M 1100.460938 514.171875 " fill-opacity="1" fill-rule="nonzero"/></g><g clip-path="url(#clip-1)"><path fill="rgb(38.038635%, 91.758728%, 80.778503%)" d="M 265.042969 486 C 264.078125 486 263.121094 486.09375 262.171875 486.285156 C 261.222656 486.472656 260.300781 486.75 259.410156 487.121094 C 258.515625 487.492188 257.667969 487.945312 256.863281 488.484375 C 256.058594 489.019531 255.316406 489.628906 254.632812 490.316406 C 253.949219 491 253.339844 491.742188 252.800781 492.546875 C 252.265625 493.351562 251.8125 494.199219 251.441406 495.09375 C 251.070312 495.984375 250.792969 496.90625 250.605469 497.855469 C 250.414062 498.804688 250.320312 499.761719 250.320312 500.726562 L 250.320312 1119.273438 C 250.320312 1120.238281 250.417969 1121.199219 250.605469 1122.144531 C 250.792969 1123.09375 251.074219 1124.015625 251.441406 1124.910156 C 251.8125 1125.800781 252.265625 1126.652344 252.804688 1127.453125 C 253.339844 1128.257812 253.949219 1129.003906 254.632812 1129.6875 C 255.316406 1130.371094 256.0625 1130.980469 256.867188 1131.519531 C 257.667969 1132.054688 258.515625 1132.507812 259.410156 1132.878906 C 260.304688 1133.25 261.222656 1133.527344 262.171875 1133.71875 C 263.121094 1133.90625 264.078125 1134 265.042969 1134 L 500.078125 1134 C 596.886719 1134 675.191406 1104.320312 728.613281 1047.792969 C 782.039062 991.265625 809.757812 909.097656 809.757812 807.210938 C 809.757812 707.375 781.636719 626.558594 728.039062 570.941406 C 674.441406 515.320312 596.21875 486 500.078125 486 Z M 279.765625 515.453125 L 500.078125 515.453125 C 590.304688 515.453125 659.550781 542.28125 706.847656 591.363281 C 754.144531 640.445312 780.316406 712.867188 780.316406 807.210938 C 780.316406 903.789062 754.363281 977.660156 707.222656 1027.542969 C 660.078125 1077.425781 590.949219 1104.546875 500.078125 1104.546875 L 279.765625 1104.546875 Z M 382.820312 574.363281 C 381.851562 574.363281 380.894531 574.457031 379.949219 574.648438 C 379 574.835938 378.078125 575.117188 377.1875 575.484375 C 376.292969 575.855469 375.445312 576.308594 374.640625 576.847656 C 373.835938 577.382812 373.09375 577.996094 372.410156 578.679688 C 371.726562 579.363281 371.117188 580.105469 370.578125 580.910156 C 370.042969 581.714844 369.589844 582.5625 369.21875 583.457031 C 368.847656 584.347656 368.570312 585.269531 368.378906 586.21875 C 368.191406 587.167969 368.097656 588.125 368.097656 589.089844 L 368.097656 1030.910156 C 368.097656 1031.875 368.191406 1032.832031 368.382812 1033.78125 C 368.570312 1034.730469 368.847656 1035.652344 369.21875 1036.546875 C 369.589844 1037.4375 370.042969 1038.285156 370.578125 1039.089844 C 371.117188 1039.894531 371.726562 1040.640625 372.410156 1041.324219 C 373.09375 1042.007812 373.835938 1042.617188 374.640625 1043.152344 C 375.445312 1043.691406 376.292969 1044.144531 377.1875 1044.515625 C 378.078125 1044.886719 379 1045.164062 379.949219 1045.351562 C 380.894531 1045.542969 381.851562 1045.636719 382.820312 1045.636719 L 487.683594 1045.636719 C 551.351562 1045.636719 603.738281 1024.125 638.988281 982.988281 C 674.238281 941.851562 691.980469 882.617188 691.980469 808.90625 C 691.980469 736.632812 673.726562 677.90625 638.296875 637.011719 C 602.871094 596.117188 550.59375 574.363281 487.683594 574.363281 Z M 397.542969 603.816406 L 487.683594 603.816406 C 543.996094 603.816406 586.523438 622.175781 616.070312 656.285156 C 645.621094 690.390625 662.539062 741.582031 662.539062 808.90625 C 662.539062 877.890625 645.953125 929.632812 616.648438 963.832031 C 587.339844 998.027344 544.914062 1016.183594 487.683594 1016.183594 L 397.542969 1016.183594 Z M 397.542969 603.816406 " fill-opacity="1" fill-rule="nonzero"/></g></svg>