<?xml version="1.0" encoding="UTF-8"?><svg xmlns="http://www.w3.org/2000/svg" xmlns:xlink="http://www.w3.org/1999/xlink" width="1620" zoomAndPan="magnify" viewBox="0 0 1620 1619.99993" height="1619.99993" preserveAspectRatio="xMidYMid meet" version="1.0"><defs><clipPath id="clip-0"><path d="M 530.144531 486 L 1089.644531 486 L 1089.644531 1134 L 530.144531 1134 Z M 530.144531 486 " clip-rule="nonzero"/></clipPath></defs><path fill="rgb(38.038635%, 91.758728%, 80.778503%)" d="M 320.6875 31.257812 L 31.257812 320.6875 L 31.257812 1299.578125 L 320.6875 1589.007812 L 1299.578125 1589.007812 L 1589.007812 1299.578125 L 1589.007812 320.6875 L 1299.578125 31.257812 Z M 346.546875 85.308594 L 1273.71875 85.308594 L 1534.953125 346.546875 L 1534.953125 1273.71875 L 1273.71875 1534.953125 L 346.546875 1534.953125 L 85.3125 1273.71875 L 85.3125 346.546875 Z M 346.546875 85.308594 " fill-opacity="1" fill-rule="nonzero"/><path fill="rgb(38.038635%, 91.758728%, 80.778503%)" d="M 189.773438 1031.933594 L 175.503906 1007.605469 L 1022.886719 162 L 1061.539062 162 Z M 984.234375 162 L 945.578125 162 L 147.554688 958.351562 L 161.828125 982.679688 Z M 1138.84375 162 L 1100.191406 162 L 204.046875 1056.261719 L 218.316406 1080.59375 Z M 1196.523438 182.175781 L 1184.628906 162 L 1177.496094 162 L 231.996094 1104.921875 L 246.265625 1129.25 Z M 1224.472656 230.835938 L 1210.199219 206.503906 L 261.132812 1154.175781 L 275.40625 1178.503906 Z M 906.925781 162 L 868.273438 162 L 119.011719 909.097656 L 133.28125 933.429688 Z M 1253.015625 280.085938 L 1238.746094 255.757812 L 289.082031 1203.425781 L 303.355469 1227.757812 Z M 321.195312 360.199219 L 519.808594 162 L 481.15625 162 L 374.117188 268.8125 Z M 1380.273438 500.242188 L 430.609375 1447.910156 L 435.367188 1456.8125 L 460.9375 1456.8125 L 1394.542969 525.164062 Z M 597.113281 162 L 558.460938 162 L 268.269531 451.582031 L 215.34375 542.964844 Z M 674.417969 162 L 635.765625 162 L 162.421875 634.351562 L 109.496094 725.734375 Z M 829.621094 162 L 790.96875 162 L 91.0625 860.4375 L 105.335938 884.769531 Z M 751.722656 162 L 713.070312 162 L 62.519531 811.1875 L 76.789062 835.515625 Z M 427.042969 177.429688 L 442.503906 162 L 435.960938 162 Z M 1539.042969 843.824219 L 1559.261719 809.40625 L 1550.34375 793.976562 L 886.710938 1456.8125 L 925.363281 1456.8125 Z M 1536.070312 769.648438 L 1521.800781 745.316406 L 809.402344 1456.8125 L 848.058594 1456.8125 Z M 1433.789062 1026.59375 L 1486.714844 935.207031 L 964.015625 1456.8125 L 1002.667969 1456.8125 Z M 1327.941406 1209.363281 L 1380.867188 1117.976562 L 1041.320312 1456.8125 L 1079.972656 1456.8125 Z M 1222.09375 1392.128906 L 1275.019531 1300.746094 L 1118.625 1456.8125 L 1157.277344 1456.8125 Z M 1508.121094 720.394531 L 1493.851562 696.066406 L 731.503906 1456.8125 L 770.15625 1456.8125 Z M 1479.578125 671.734375 L 1465.308594 647.40625 L 654.199219 1456.8125 L 692.851562 1456.8125 Z M 1338.050781 426.660156 L 1323.78125 402.328125 L 374.117188 1350 L 388.390625 1374.328125 Z M 1309.507812 378 L 1295.238281 353.671875 L 345.574219 1301.339844 L 359.847656 1325.667969 Z M 1366 475.910156 L 1351.730469 451.582031 L 402.660156 1398.65625 L 416.933594 1422.988281 Z M 1451.035156 622.484375 L 1436.765625 598.152344 L 576.894531 1456.8125 L 615.546875 1456.8125 Z M 1281.558594 328.746094 L 1267.289062 304.417969 L 317.625 1252.085938 L 331.898438 1276.417969 Z M 1423.085938 573.824219 L 1408.816406 549.492188 L 499.589844 1456.8125 L 538.242188 1456.8125 Z M 1423.085938 573.824219 " fill-opacity="1" fill-rule="nonzero"/><g clip-path="url(#clip-0)"><path fill="rgb(3.919983%, 9.799194%, 18.429565%)" d="M 779.921875 486 L 544.898438 486 C 536.757812 486 530.175781 492.597656 530.175781 500.726562 L 530.175781 1119.273438 C 530.175781 1127.402344 536.757812 1134 544.898438 1134 L 779.921875 1134 C 976.738281 1134 1089.613281 1014.886719 1089.613281 807.214844 C 1089.613281 606.070312 973.839844 486 779.921875 486 Z M 767.554688 1030.910156 L 662.675781 1030.910156 L 662.675781 589.089844 L 767.554688 589.089844 C 886.773438 589.089844 957.117188 669.296875 957.117188 808.894531 C 957.117188 951.585938 888.453125 1030.910156 767.554688 1030.910156 Z M 767.554688 1030.910156 " fill-opacity="1" fill-rule="nonzero"/></g></svg>